<?xml version="1.0" encoding="utf-8"?>
<!-- Generator: Adobe Illustrator 25.4.1, SVG Export Plug-In . SVG Version: 6.00 Build 0)  -->
<svg version="1.1" id="Capa_1" xmlns="http://www.w3.org/2000/svg" xmlns:xlink="http://www.w3.org/1999/xlink" x="0px" y="0px"
	 viewBox="0 0 48 48" style="enable-background:new 0 0 48 48;" xml:space="preserve">
<style type="text/css">
	.st0{fill:#E63333;}
	.st1{fill:#FFFFFF;}
</style>
<rect x="-5.67" y="-5.67" class="st0" width="60.12" height="60.12"/>
<g>
	<g>
		<path class="st1" d="M16.67,27c0,2.28-1.86,4.14-4.14,4.14c-2.28,0-4.14-1.86-4.14-4.14c0-2.28,1.86-4.14,4.14-4.14
			C14.81,22.86,16.67,24.72,16.67,27 M23.87,33.91l-3.52-9.26c-1.02-3.4-4.12-5.88-7.85-5.88c-4.53,0-8.21,3.68-8.21,8.24
			c0,4.53,3.68,8.21,8.21,8.21c2.63,0,4.93-1.24,6.44-3.14l0.68,1.83H23.87z"/>
		<path class="st1" d="M36.58,27c0,2.28-1.86,4.13-4.13,4.13c-2.28,0-4.13-1.86-4.13-4.13s1.86-4.13,4.13-4.13
			C34.72,22.86,36.58,24.72,36.58,27 M43.7,33.82l-7.62-21.04h-4.24l2.24,6.17c-0.56-0.12-1.13-0.19-1.72-0.19
			c-4.52,0-8.19,3.7-8.19,8.22c0,4.52,3.67,8.19,8.19,8.19c2.63,0,4.96-1.26,6.46-3.19l0.67,1.84H43.7z"/>
		<polygon class="st1" points="31.48,16.85 30,12.78 18.76,12.78 20.24,16.85 		"/>
	</g>
</g>
</svg>
