<svg xmlns="http://www.w3.org/2000/svg" enable-background="new 0 0 28 28" viewBox="0 0 28 28" id="web-components-dot-org">
  <path fill="#FF7C66" d="M18.787,5.5H9.866C9.069,5.5,8.33,5.918,7.92,6.602l-4.48,7.476c-0.426,0.71-0.43,1.596-0.013,2.31l4.054,6.936c0.405,0.693,1.146,1.12,1.948,1.124l9.69,0.045c0.816,0.004,1.572-0.431,1.978-1.139l4.002-6.975c0.403-0.703,0.401-1.567-0.006-2.268l-4.344-7.483C20.342,5.93,19.595,5.5,18.787,5.5z M15.62,19.124l-2.735-0.013c-0.802-0.004-1.543-0.431-1.948-1.124l-1.01-1.729c-0.418-0.715-0.413-1.6,0.013-2.31l1.185-1.977c0.41-0.684,1.148-1.102,1.946-1.102h2.414c0.808,0,1.556,0.43,1.962,1.129l1.147,1.975c0.407,0.701,0.409,1.565,0.006,2.268l-1,1.743C17.192,18.693,16.436,19.128,15.62,19.124z"></path>
  <path d="M20.188,23.75c-0.082,0-0.161-0.02-0.231-0.057H7.884c-0.178,0-0.342-0.095-0.432-0.248l-5.384-9.213c-0.091-0.155-0.091-0.349,0-0.504l5.384-9.215c0.09-0.153,0.254-0.248,0.432-0.248h5.741c0.038-0.01,0.077-0.016,0.117-0.016l0,0l6.418,0.002c0.146,0,0.281,0.063,0.376,0.17c0.032,0.031,0.062,0.067,0.085,0.108l2.499,4.323c0.089,0.153,0.089,0.341,0.005,0.492c0.079,0.022,0.151,0.064,0.21,0.121c0.037,0.033,0.069,0.072,0.096,0.115l2.498,4.154c0.095,0.159,0.095,0.357,0,0.516l-2.498,4.153c-0.061,0.101-0.153,0.175-0.261,0.213c0.051,0.093,0.069,0.199,0.057,0.302c-0.007,0.07-0.027,0.14-0.064,0.203l-2.541,4.378c-0.086,0.148-0.243,0.243-0.416,0.249C20.199,23.75,20.194,23.75,20.188,23.75z M8.171,22.693h11.762l2.191-3.778l-0.376-0.444c-0.126-0.149-0.153-0.357-0.071-0.533c0.081-0.177,0.259-0.29,0.453-0.29h0.589l2.198-3.653l-2.205-3.667h-0.63c-0.194,0-0.371-0.112-0.453-0.288s-0.055-0.384,0.069-0.533l0.381-0.455l-2.195-3.799h-6.04c-0.036,0.009-0.073,0.014-0.11,0.014H8.171L3.079,13.98L8.171,22.693z M17.155,19.368h-5.959c-0.178,0-0.342-0.094-0.432-0.247l-2.865-4.89c-0.092-0.157-0.091-0.352,0.002-0.508l2.896-4.879c0.1-0.169,0.277-0.271,0.483-0.242l0,0h5.879c0.187,0,0.357,0.104,0.443,0.27c0.086,0.165,0.073,0.365-0.034,0.518l-0.332,0.474l1.974,3.261h0.556c0.195,0,0.372,0.113,0.454,0.29c0.08,0.174,0.054,0.377-0.065,0.524l0.073,0.089c0.124,0.149,0.15,0.356,0.067,0.532c-0.082,0.175-0.259,0.287-0.452,0.287h-0.634l-1.974,3.26l0.331,0.477c0.105,0.153,0.118,0.353,0.032,0.517C17.512,19.265,17.341,19.368,17.155,19.368z M11.482,18.368h4.711c-0.077-0.152-0.082-0.335,0.007-0.481l2.299-3.799c0.023-0.038,0.051-0.073,0.083-0.103c-0.031-0.03-0.06-0.064-0.082-0.103l-2.299-3.799c-0.089-0.146-0.096-0.329-0.02-0.481H11.51L8.911,13.98L11.482,18.368z"></path>
</svg>
